solid patch_3_0
 facet normal -0.7071067690849304 0.7071067690849304 0.0
  outer loop
   vertex 0.0004606721103191376 0.0004606721103191376 0.0
   vertex 0.0003535533845424652 0.0003535533845424652 0.0
   vertex 0.0 0.0 0.005
  endloop
 endfacet
 facet normal -0.7071067690849304 0.7071067690849304 0.0
  outer loop
   vertex 0.001041955828666687 0.001041955828666687 0.0
   vertex 0.0004606721103191376 0.0004606721103191376 0.0
   vertex 0.0 0.0 0.005
  endloop
 endfacet
 facet normal -0.7071068286895752 0.7071068286895752 0.0
  outer loop
   vertex 0.0012119481563568116 0.0012119481563568116 0.0
   vertex 0.001041955828666687 0.001041955828666687 0.0
   vertex 0.0 0.0 0.005
  endloop
 endfacet
 facet normal -0.7071067690849304 0.7071067690849304 0.0
  outer loop
   vertex 0.001041955828666687 0.001041955828666687 -0.001
   vertex 0.0004606721103191376 0.0004606721103191376 -0.001
   vertex 0.0004606721103191376 0.0004606721103191376 0.0
  endloop
 endfacet
 facet normal -0.7071067690849304 0.7071067690849304 0.0
  outer loop
   vertex 0.001041955828666687 0.001041955828666687 -0.001
   vertex 0.0004606721103191376 0.0004606721103191376 0.0
   vertex 0.001041955828666687 0.001041955828666687 0.0
  endloop
 endfacet
 facet normal -0.7071068286895752 0.7071068286895752 0.0
  outer loop
   vertex 0.0018936452865600587 0.0018936452865600587 0.0
   vertex 0.0012119481563568116 0.0012119481563568116 0.0
   vertex 0.0 0.0 0.005
  endloop
 endfacet
 facet normal -0.7071067690849304 0.7071067690849304 0.0
  outer loop
   vertex 0.0018936452865600587 0.0018936452865600587 -0.001
   vertex 0.0012119481563568116 0.0012119481563568116 -0.001
   vertex 0.0012119481563568116 0.0012119481563568116 0.0
  endloop
 endfacet
 facet normal -0.7071067690849304 0.7071067690849304 0.0
  outer loop
   vertex 0.0018936452865600587 0.0018936452865600587 -0.001
   vertex 0.0012119481563568116 0.0012119481563568116 0.0
   vertex 0.0018936452865600587 0.0018936452865600587 0.0
  endloop
 endfacet
 facet normal -0.7071067690849304 0.7071067690849304 0.0
  outer loop
   vertex 0.002768176555633545 0.002768176555633545 0.0
   vertex 0.0018936452865600587 0.0018936452865600587 0.0
   vertex 0.0 0.0 0.005
  endloop
 endfacet
 facet normal -0.7071068286895752 0.7071068286895752 0.0
  outer loop
   vertex 0.003451730489730835 0.003451730489730835 0.0
   vertex 0.002768176555633545 0.002768176555633545 0.0
   vertex 0.0 0.0 0.005
  endloop
 endfacet
 facet normal -0.7071067690849304 0.7071067690849304 0.0
  outer loop
   vertex 0.0035804057121276854 0.0035804057121276854 0.0
   vertex 0.003451730489730835 0.003451730489730835 0.0
   vertex 0.0 0.0 0.005
  endloop
 endfacet
 facet normal -0.7071067690849304 0.7071067690849304 0.0
  outer loop
   vertex 0.007424621105194092 0.007424621105194092 0.005
   vertex 0.0035804057121276854 0.0035804057121276854 0.0
   vertex 0.0 0.0 0.005
  endloop
 endfacet
 facet normal -0.7071067690849304 0.7071067690849304 0.0
  outer loop
   vertex 0.003451730489730835 0.003451730489730835 -0.001
   vertex 0.002768176555633545 0.002768176555633545 -0.001
   vertex 0.002768176555633545 0.002768176555633545 0.0
  endloop
 endfacet
 facet normal -0.7071067690849304 0.7071067690849304 0.0
  outer loop
   vertex 0.003451730489730835 0.003451730489730835 -0.001
   vertex 0.002768176555633545 0.002768176555633545 0.0
   vertex 0.003451730489730835 0.003451730489730835 0.0
  endloop
 endfacet
 facet normal -0.7071067690849304 0.7071067690849304 0.0
  outer loop
   vertex 0.004189469337463379 0.004189469337463379 0.0
   vertex 0.0035804057121276854 0.0035804057121276854 0.0
   vertex 0.007424621105194092 0.007424621105194092 0.005
  endloop
 endfacet
 facet normal -0.7071067690849304 0.7071067690849304 0.0
  outer loop
   vertex 0.004428660392761231 0.004428660392761231 0.0
   vertex 0.004189469337463379 0.004189469337463379 0.0
   vertex 0.007424621105194092 0.007424621105194092 0.005
  endloop
 endfacet
 facet normal -0.7071067690849304 0.7071067690849304 0.0
  outer loop
   vertex 0.004889740467071533 0.004889740467071533 0.0
   vertex 0.004428660392761231 0.004428660392761231 0.0
   vertex 0.007424621105194092 0.007424621105194092 0.005
  endloop
 endfacet
 facet normal -0.7071067690849304 0.7071067690849304 0.0
  outer loop
   vertex 0.004189469337463379 0.004189469337463379 -0.001
   vertex 0.0035804057121276854 0.0035804057121276854 -0.001
   vertex 0.0035804057121276854 0.0035804057121276854 0.0
  endloop
 endfacet
 facet normal -0.7071067690849304 0.7071067690849304 0.0
  outer loop
   vertex 0.004189469337463379 0.004189469337463379 -0.001
   vertex 0.0035804057121276854 0.0035804057121276854 0.0
   vertex 0.004189469337463379 0.004189469337463379 0.0
  endloop
 endfacet
 facet normal -0.7071067690849304 0.7071067690849304 0.0
  outer loop
   vertex 0.0050911688804626464 0.0050911688804626464 0.0
   vertex 0.004889740467071533 0.004889740467071533 0.0
   vertex 0.007424621105194092 0.007424621105194092 0.005
  endloop
 endfacet
 facet normal -0.7071067690849304 0.7071067690849304 0.0
  outer loop
   vertex 0.004428660392761231 0.004428660392761231 -0.001
   vertex 0.004428660392761231 0.004428660392761231 0.0
   vertex 0.004889740467071533 0.004889740467071533 0.0
  endloop
 endfacet
 facet normal -0.7071067690849304 0.7071067690849304 0.0
  outer loop
   vertex 0.004889740467071533 0.004889740467071533 -0.001
   vertex 0.004428660392761231 0.004428660392761231 -0.001
   vertex 0.004889740467071533 0.004889740467071533 0.0
  endloop
 endfacet
 facet normal -0.7071067690849304 0.7071067690849304 0.0
  outer loop
   vertex 0.0057982754707336425 0.0057982754707336425 0.0
   vertex 0.0050911688804626464 0.0050911688804626464 0.0
   vertex 0.007424621105194092 0.007424621105194092 0.005
  endloop
 endfacet
 facet normal -0.7071068286895752 0.7071068286895752 0.0
  outer loop
   vertex 0.005984489440917969 0.005984489440917969 0.0
   vertex 0.0057982754707336425 0.0057982754707336425 0.0
   vertex 0.007424621105194092 0.007424621105194092 0.005
  endloop
 endfacet
 facet normal -0.7071068286895752 0.7071068286895752 0.0
  outer loop
   vertex 0.006449171543121338 0.006449171543121338 0.0
   vertex 0.005984489440917969 0.005984489440917969 0.0
   vertex 0.007424621105194092 0.007424621105194092 0.005
  endloop
 endfacet
 facet normal -0.7071068286895752 0.7071068286895752 0.0
  outer loop
   vertex 0.0057982754707336425 0.0057982754707336425 -0.001
   vertex 0.0050911688804626464 0.0050911688804626464 0.0
   vertex 0.0057982754707336425 0.0057982754707336425 0.0
  endloop
 endfacet
 facet normal -0.7071068286895752 0.7071068286895752 0.0
  outer loop
   vertex 0.0057982754707336425 0.0057982754707336425 -0.001
   vertex 0.0050911688804626464 0.0050911688804626464 -0.001
   vertex 0.0050911688804626464 0.0050911688804626464 0.0
  endloop
 endfacet
 facet normal -0.7071067690849304 0.7071067690849304 0.0
  outer loop
   vertex 0.0066922492980957034 0.0066922492980957034 0.0
   vertex 0.006449171543121338 0.006449171543121338 0.0
   vertex 0.007424621105194092 0.007424621105194092 0.005
  endloop
 endfacet
 facet normal -0.7071067690849304 0.7071067690849304 0.0
  outer loop
   vertex 0.006449171543121338 0.006449171543121338 -0.001
   vertex 0.005984489440917969 0.005984489440917969 0.0
   vertex 0.006449171543121338 0.006449171543121338 0.0
  endloop
 endfacet
 facet normal -0.7071067690849304 0.7071067690849304 0.0
  outer loop
   vertex 0.006449171543121338 0.006449171543121338 -0.001
   vertex 0.005984489440917969 0.005984489440917969 -0.001
   vertex 0.005984489440917969 0.005984489440917969 0.0
  endloop
 endfacet
 facet normal -0.7071067690849304 0.7071067690849304 0.0
  outer loop
   vertex 0.007303971767425537 0.007303971767425537 0.0
   vertex 0.0066922492980957034 0.0066922492980957034 0.0
   vertex 0.007424621105194092 0.007424621105194092 0.005
  endloop
 endfacet
 facet normal -0.7071067690849304 0.7071067690849304 0.0
  outer loop
   vertex 0.0066922492980957034 0.0066922492980957034 -0.001
   vertex 0.0066922492980957034 0.0066922492980957034 0.0
   vertex 0.007303971767425537 0.007303971767425537 0.0
  endloop
 endfacet
 facet normal -0.7071067690849304 0.7071067690849304 0.0
  outer loop
   vertex 0.007424621105194092 0.007424621105194092 0.0
   vertex 0.007303971767425537 0.007303971767425537 0.0
   vertex 0.007424621105194092 0.007424621105194092 0.005
  endloop
 endfacet
 facet normal -0.7071067690849304 0.7071067690849304 0.0
  outer loop
   vertex 0.007303971767425537 0.007303971767425537 -0.001
   vertex 0.0066922492980957034 0.0066922492980957034 -0.001
   vertex 0.007303971767425537 0.007303971767425537 0.0
  endloop
 endfacet
 facet normal -0.7071067690849304 0.7071067690849304 0.0
  outer loop
   vertex 0.0007071067690849304 0.0007071067690849304 -0.014
   vertex 0.0003535533845424652 0.0003535533845424652 -0.001
   vertex 0.0004606721103191376 0.0004606721103191376 -0.001
  endloop
 endfacet
 facet normal -0.7071067690849304 0.7071067690849304 0.0
  outer loop
   vertex 0.0007071067690849304 0.0007071067690849304 -0.014
   vertex 0.0004606721103191376 0.0004606721103191376 -0.001
   vertex 0.001041955828666687 0.001041955828666687 -0.001
  endloop
 endfacet
 facet normal -0.7071067690849304 0.7071067690849304 0.0
  outer loop
   vertex 0.0007071067690849304 0.0007071067690849304 -0.014
   vertex 0.0 0.0 -0.015
   vertex 0.0003535533845424652 0.0003535533845424652 -0.001
  endloop
 endfacet
 facet normal -0.7071067690849304 0.7071067690849304 0.0
  outer loop
   vertex 0.0009213442206382752 0.0009213442206382752 -0.014
   vertex 0.0007071067690849304 0.0007071067690849304 -0.014
   vertex 0.001041955828666687 0.001041955828666687 -0.001
  endloop
 endfacet
 facet normal -0.7071068286895752 0.7071068286895752 0.0
  outer loop
   vertex 0.0009213442206382752 0.0009213442206382752 -0.014
   vertex 0.001041955828666687 0.001041955828666687 -0.001
   vertex 0.0012119481563568116 0.0012119481563568116 -0.001
  endloop
 endfacet
 facet normal -0.7071068286895752 0.7071068286895752 0.0
  outer loop
   vertex 0.0007071067690849304 0.0007071067690849304 -0.015
   vertex 0.0 0.0 -0.015
   vertex 0.0007071067690849304 0.0007071067690849304 -0.014
  endloop
 endfacet
 facet normal -0.7071067690849304 0.7071067690849304 0.0
  outer loop
   vertex 0.002083911657333374 0.002083911657333374 -0.014
   vertex 0.0009213442206382752 0.0009213442206382752 -0.014
   vertex 0.0012119481563568116 0.0012119481563568116 -0.001
  endloop
 endfacet
 facet normal -0.7071067690849304 0.7071067690849304 0.0
  outer loop
   vertex 0.002083911657333374 0.002083911657333374 -0.014
   vertex 0.0018936452865600587 0.0018936452865600587 -0.001
   vertex 0.002768176555633545 0.002768176555633545 -0.001
  endloop
 endfacet
 facet normal -0.7071068286895752 0.7071068286895752 0.0
  outer loop
   vertex 0.002083911657333374 0.002083911657333374 -0.014
   vertex 0.0012119481563568116 0.0012119481563568116 -0.001
   vertex 0.0018936452865600587 0.0018936452865600587 -0.001
  endloop
 endfacet
 facet normal -0.7071067690849304 0.7071067690849304 0.0
  outer loop
   vertex 0.002083911657333374 0.002083911657333374 -0.015
   vertex 0.0009213442206382752 0.0009213442206382752 -0.015
   vertex 0.0009213442206382752 0.0009213442206382752 -0.014
  endloop
 endfacet
 facet normal -0.7071067690849304 0.7071067690849304 0.0
  outer loop
   vertex 0.002083911657333374 0.002083911657333374 -0.015
   vertex 0.0009213442206382752 0.0009213442206382752 -0.014
   vertex 0.002083911657333374 0.002083911657333374 -0.014
  endloop
 endfacet
 facet normal -0.7071068286895752 0.7071068286895752 0.0
  outer loop
   vertex 0.004070737361907959 0.004070737361907959 -0.014
   vertex 0.002083911657333374 0.002083911657333374 -0.014
   vertex 0.002768176555633545 0.002768176555633545 -0.001
  endloop
 endfacet
 facet normal -0.7071067094802856 0.7071067094802856 0.0
  outer loop
   vertex 0.004070737361907959 0.004070737361907959 -0.014
   vertex 0.003451730489730835 0.003451730489730835 -0.001
   vertex 0.0035804057121276854 0.0035804057121276854 -0.001
  endloop
 endfacet
 facet normal -0.7071067690849304 0.7071067690849304 0.0
  outer loop
   vertex 0.004070737361907959 0.004070737361907959 -0.014
   vertex 0.004189469337463379 0.004189469337463379 -0.001
   vertex 0.004428660392761231 0.004428660392761231 -0.001
  endloop
 endfacet
 facet normal -0.7071067690849304 0.7071067690849304 0.0
  outer loop
   vertex 0.004070737361907959 0.004070737361907959 -0.014
   vertex 0.002768176555633545 0.002768176555633545 -0.001
   vertex 0.003451730489730835 0.003451730489730835 -0.001
  endloop
 endfacet
 facet normal -0.7071067690849304 0.7071067690849304 0.0
  outer loop
   vertex 0.004070737361907959 0.004070737361907959 -0.014
   vertex 0.0035804057121276854 0.0035804057121276854 -0.001
   vertex 0.004189469337463379 0.004189469337463379 -0.001
  endloop
 endfacet
 facet normal -0.7071067690849304 0.7071067690849304 0.0
  outer loop
   vertex 0.005227554321289063 0.005227554321289063 -0.014
   vertex 0.004428660392761231 0.004428660392761231 -0.001
   vertex 0.004889740467071533 0.004889740467071533 -0.001
  endloop
 endfacet
 facet normal -0.7071067690849304 0.7071067690849304 0.0
  outer loop
   vertex 0.005227554321289063 0.005227554321289063 -0.014
   vertex 0.0050911688804626464 0.0050911688804626464 -0.001
   vertex 0.0057982754707336425 0.0057982754707336425 -0.001
  endloop
 endfacet
 facet normal -0.7071067690849304 0.7071067690849304 0.0
  outer loop
   vertex 0.005227554321289063 0.005227554321289063 -0.014
   vertex 0.004070737361907959 0.004070737361907959 -0.015
   vertex 0.004070737361907959 0.004070737361907959 -0.014
  endloop
 endfacet
 facet normal -0.7071067690849304 0.7071067690849304 0.0
  outer loop
   vertex 0.005227554321289063 0.005227554321289063 -0.014
   vertex 0.004889740467071533 0.004889740467071533 -0.001
   vertex 0.0050911688804626464 0.0050911688804626464 -0.001
  endloop
 endfacet
 facet normal -0.7071067690849304 0.7071067690849304 0.0
  outer loop
   vertex 0.005227554321289063 0.005227554321289063 -0.014
   vertex 0.004070737361907959 0.004070737361907959 -0.014
   vertex 0.004428660392761231 0.004428660392761231 -0.001
  endloop
 endfacet
 facet normal -0.7071067690849304 0.7071067690849304 0.0
  outer loop
   vertex 0.005798589229583741 0.005798589229583741 -0.014
   vertex 0.0057982754707336425 0.0057982754707336425 -0.001
   vertex 0.005984489440917969 0.005984489440917969 -0.001
  endloop
 endfacet
 facet normal -0.7071067690849304 0.7071067690849304 0.0
  outer loop
   vertex 0.005798589229583741 0.005798589229583741 -0.014
   vertex 0.005227554321289063 0.005227554321289063 -0.014
   vertex 0.0057982754707336425 0.0057982754707336425 -0.001
  endloop
 endfacet
 facet normal -0.7071067690849304 0.7071067690849304 0.0
  outer loop
   vertex 0.005227554321289063 0.005227554321289063 -0.015
   vertex 0.004070737361907959 0.004070737361907959 -0.015
   vertex 0.005227554321289063 0.005227554321289063 -0.014
  endloop
 endfacet
 facet normal -0.7071067690849304 0.7071067690849304 0.0
  outer loop
   vertex 0.006591258525848389 0.006591258525848389 -0.014
   vertex 0.006449171543121338 0.006449171543121338 -0.001
   vertex 0.0066922492980957034 0.0066922492980957034 -0.001
  endloop
 endfacet
 facet normal -0.7071067690849304 0.7071067690849304 0.0
  outer loop
   vertex 0.006591258525848389 0.006591258525848389 -0.014
   vertex 0.005984489440917969 0.005984489440917969 -0.001
   vertex 0.006449171543121338 0.006449171543121338 -0.001
  endloop
 endfacet
 facet normal -0.7071067690849304 0.7071067690849304 0.0
  outer loop
   vertex 0.006591258525848389 0.006591258525848389 -0.014
   vertex 0.0066922492980957034 0.0066922492980957034 -0.001
   vertex 0.007303971767425537 0.007303971767425537 -0.001
  endloop
 endfacet
 facet normal -0.7071067690849304 0.7071067690849304 0.0
  outer loop
   vertex 0.006591258525848389 0.006591258525848389 -0.014
   vertex 0.005798589229583741 0.005798589229583741 -0.014
   vertex 0.005984489440917969 0.005984489440917969 -0.001
  endloop
 endfacet
 facet normal -0.7071068286895752 0.7071068286895752 0.0
  outer loop
   vertex 0.006591258525848389 0.006591258525848389 -0.015
   vertex 0.005798589229583741 0.005798589229583741 -0.015
   vertex 0.005798589229583741 0.005798589229583741 -0.014
  endloop
 endfacet
 facet normal -0.7071068286895752 0.7071068286895752 0.0
  outer loop
   vertex 0.006591258525848389 0.006591258525848389 -0.015
   vertex 0.005798589229583741 0.005798589229583741 -0.014
   vertex 0.006591258525848389 0.006591258525848389 -0.014
  endloop
 endfacet
 facet normal -0.7071067690849304 0.7071067690849304 0.0
  outer loop
   vertex 0.007424621105194092 0.007424621105194092 -0.014
   vertex 0.007303971767425537 0.007303971767425537 -0.001
   vertex 0.007424621105194092 0.007424621105194092 -0.001
  endloop
 endfacet
 facet normal -0.7071068286895752 0.7071068286895752 0.0
  outer loop
   vertex 0.007424621105194092 0.007424621105194092 -0.014
   vertex 0.006591258525848389 0.006591258525848389 -0.014
   vertex 0.007303971767425537 0.007303971767425537 -0.001
  endloop
 endfacet
 facet normal -0.7071067690849304 0.7071067690849304 0.0
  outer loop
   vertex 0.0 0.0 -0.015
   vertex 0.0 0.0 0.005
   vertex 0.0003535533845424652 0.0003535533845424652 0.0
  endloop
 endfacet
 facet normal -0.7071068286895752 0.7071068286895752 0.0
  outer loop
   vertex 0.0 0.0 -0.015
   vertex 0.0003535533845424652 0.0003535533845424652 0.0
   vertex 0.0003535533845424652 0.0003535533845424652 -0.001
  endloop
 endfacet
 facet normal -7.347879527324231e-16 -1.0 -7.347879130277537e-17
  outer loop
   vertex 0.0005 0.0 0.0
   vertex 0.0006000000238418579 -7.347881115511007e-20 0.0
   vertex 0.0 0.0 0.005
  endloop
 endfacet
 facet normal 3.834758696342348e-17 -1.0 1.9297471872539444e-17
  outer loop
   vertex 0.0006000000238418579 -7.347881115511007e-20 0.0
   vertex 0.001600000023841858 -3.513122419168659e-20 0.0
   vertex 0.0 0.0 0.005
  endloop
 endfacet
 facet normal 3.834758696342348e-17 -1.0 0.0
  outer loop
   vertex 0.0006000000238418579 -7.347881115511007e-20 -0.001
   vertex 0.001600000023841858 -3.513122419168659e-20 -0.001
   vertex 0.0006000000238418579 -7.347881115511007e-20 0.0
  endloop
 endfacet
 facet normal 3.834758696342348e-17 -1.0 0.0
  outer loop
   vertex 0.0006000000238418579 -7.347881115511007e-20 0.0
   vertex 0.001600000023841858 -3.513122419168659e-20 -0.001
   vertex 0.001600000023841858 -3.513122419168659e-20 0.0
  endloop
 endfacet
 facet normal -2.564749060441425e-16 -1.0 -7.504572946330192e-17
  outer loop
   vertex 0.001600000023841858 -3.513122419168659e-20 0.0
   vertex 0.002799999952316284 -3.429010922540674e-19 0.0
   vertex 0.0 0.0 0.005
  endloop
 endfacet
 facet normal 2.6039216872739764e-16 -1.0 2.1439984140848563e-16
  outer loop
   vertex 0.002799999952316284 -3.429010922540674e-19 0.0
   vertex 0.003799999952316284 -8.250891690922486e-20 0.0
   vertex 0.0 0.0 0.005
  endloop
 endfacet
 facet normal 2.6039216872739764e-16 -1.0 0.0
  outer loop
   vertex 0.002799999952316284 -3.429010922540674e-19 -0.001
   vertex 0.003799999952316284 -8.250891690922486e-20 -0.001
   vertex 0.002799999952316284 -3.429010922540674e-19 0.0
  endloop
 endfacet
 facet normal 2.6039216872739764e-16 -1.0 0.0
  outer loop
   vertex 0.002799999952316284 -3.429010922540674e-19 0.0
   vertex 0.003799999952316284 -8.250891690922486e-20 -0.001
   vertex 0.003799999952316284 -8.250891690922486e-20 0.0
  endloop
 endfacet
 facet normal -4.415120856382618e-16 -1.0 -3.190473739099654e-16
  outer loop
   vertex 0.003799999952316284 -8.250891690922486e-20 0.0
   vertex 0.005 -6.123233998228043e-19 0.0
   vertex 0.0 0.0 0.005
  endloop
 endfacet
 facet normal 0.0 -1.0 1.2246468525851679e-16
  outer loop
   vertex 0.005 -6.123233998228043e-19 0.0
   vertex 0.0105 0.0 0.005
   vertex 0.0 0.0 0.005
  endloop
 endfacet
 facet normal 4.824368265919881e-16 -1.0 -4.082158292866261e-16
  outer loop
   vertex 0.005 -6.123233998228043e-19 0.0
   vertex 0.006 -1.2988659970059577e-19 0.0
   vertex 0.0105 0.0 0.005
  endloop
 endfacet
 facet normal 4.824368265919881e-16 -1.0 0.0
  outer loop
   vertex 0.005 -6.123233998228043e-19 -0.001
   vertex 0.006 -1.2988659970059577e-19 -0.001
   vertex 0.005 -6.123233998228043e-19 0.0
  endloop
 endfacet
 facet normal 4.824368265919881e-16 -1.0 0.0
  outer loop
   vertex 0.005 -6.123233998228043e-19 0.0
   vertex 0.006 -1.2988659970059577e-19 -0.001
   vertex 0.006 -1.2988659970059577e-19 0.0
  endloop
 endfacet
 facet normal -6.265493181719403e-16 -1.0 5.898716798250858e-16
  outer loop
   vertex 0.006 -1.2988659970059577e-19 0.0
   vertex 0.007199999809265137 -8.817456809217617e-19 0.0
   vertex 0.0105 0.0 0.005
  endloop
 endfacet
 facet normal 9.265260364420508e-16 -1.0 0.0
  outer loop
   vertex 0.007199999809265137 -8.817456809217617e-19 -0.001
   vertex 0.008199999809265137 4.478030919817481e-20 0.0
   vertex 0.007199999809265137 -8.817456809217617e-19 0.0
  endloop
 endfacet
 facet normal 9.265260364420508e-16 -1.0 -4.3515809445421327e-16
  outer loop
   vertex 0.007199999809265137 -8.817456809217617e-19 0.0
   vertex 0.008199999809265137 4.478030919817481e-20 0.0
   vertex 0.0105 0.0 0.005
  endloop
 endfacet
 facet normal 9.265260364420508e-16 -1.0 0.0
  outer loop
   vertex 0.007199999809265137 -8.817456809217617e-19 -0.001
   vertex 0.008199999809265137 4.478030919817481e-20 -0.001
   vertex 0.008199999809265137 4.478030919817481e-20 0.0
  endloop
 endfacet
 facet normal -9.96623730299738e-16 -1.0 4.494908977733809e-16
  outer loop
   vertex 0.008199999809265137 4.478030919817481e-20 0.0
   vertex 0.009399999618530273 -1.151167962020719e-18 0.0
   vertex 0.0105 0.0 0.005
  endloop
 endfacet
 facet normal 1.1485705354879637e-15 -1.0 -2.2452006202210445e-17
  outer loop
   vertex 0.009399999618530273 -1.151167962020719e-18 0.0
   vertex 0.010399999618530274 -2.597381451411928e-21 0.0
   vertex 0.0105 0.0 0.005
  endloop
 endfacet
 facet normal 2.5973716079626385e-17 -1.0 0.0
  outer loop
   vertex 0.010399999618530274 -2.597381451411928e-21 0.0
   vertex 0.0105 0.0 0.0
   vertex 0.0105 0.0 0.005
  endloop
 endfacet
 facet normal 1.1485705354879637e-15 -1.0 0.0
  outer loop
   vertex 0.009399999618530273 -1.151167962020719e-18 -0.001
   vertex 0.010399999618530274 -2.597381451411928e-21 -0.001
   vertex 0.009399999618530273 -1.151167962020719e-18 0.0
  endloop
 endfacet
 facet normal 1.1485705354879637e-15 -1.0 0.0
  outer loop
   vertex 0.009399999618530273 -1.151167962020719e-18 0.0
   vertex 0.010399999618530274 -2.597381451411928e-21 -0.001
   vertex 0.010399999618530274 -2.597381451411928e-21 0.0
  endloop
 endfacet
 facet normal -7.347879527324231e-16 -1.0 -5.947196993684754e-17
  outer loop
   vertex 0.0005 0.0 -0.001
   vertex 0.001 4.057416195779167e-19 -0.014
   vertex 0.0006000000238418579 -7.347881115511007e-20 -0.001
  endloop
 endfacet
 facet normal 4.2076906932317164e-16 -1.0 -1.5027467943228434e-17
  outer loop
   vertex 0.0 0.0 -0.015
   vertex 0.001 4.057416195779167e-19 -0.014
   vertex 0.0005 0.0 -0.001
  endloop
 endfacet
 facet normal 3.834758696342348e-17 -1.0 3.863299736197878e-17
  outer loop
   vertex 0.0006000000238418579 -7.347881115511007e-20 -0.001
   vertex 0.0012000000476837158 -5.526992154183573e-19 -0.014
   vertex 0.001600000023841858 -3.513122419168659e-20 -0.001
  endloop
 endfacet
 facet normal -4.7922032485390835e-15 -1.0 -1.8431550752305863e-16
  outer loop
   vertex 0.001 4.057416195779167e-19 -0.014
   vertex 0.0012000000476837158 -5.526992154183573e-19 -0.014
   vertex 0.0006000000238418579 -7.347881115511007e-20 -0.001
  endloop
 endfacet
 facet normal 4.923372123772924e-16 -1.0 -8.659559279937574e-17
  outer loop
   vertex 0.0 0.0 -0.015
   vertex 0.001 4.923372123772925e-19 -0.015
   vertex 0.001 4.057416195779167e-19 -0.014
  endloop
 endfacet
 facet normal 2.220445916901415e-16 -1.0 3.2980782900897783e-17
  outer loop
   vertex 0.0012000000476837158 -5.526992154183573e-19 -0.014
   vertex 0.003200000047683716 -1.0861003203807422e-19 -0.014
   vertex 0.001600000023841858 -3.513122419168659e-20 -0.001
  endloop
 endfacet
 facet normal -2.564749060441425e-16 -1.0 -2.5913927464951052e-17
  outer loop
   vertex 0.001600000023841858 -3.513122419168659e-20 -0.001
   vertex 0.003200000047683716 -1.0861003203807422e-19 -0.014
   vertex 0.002799999952316284 -3.429010922540674e-19 -0.001
  endloop
 endfacet
 facet normal 2.6039216872739764e-16 -1.0 -1.9440203541596694e-17
  outer loop
   vertex 0.002799999952316284 -3.429010922540674e-19 -0.001
   vertex 0.0034000000953674316 6.605688347814128e-20 -0.014
   vertex 0.003799999952316284 -8.250891690922486e-20 -0.001
  endloop
 endfacet
 facet normal 8.733343261181712e-16 -1.0 8.849444545249532e-18
  outer loop
   vertex 0.003200000047683716 -1.0861003203807422e-19 -0.014
   vertex 0.0034000000953674316 6.605688347814128e-20 -0.014
   vertex 0.002799999952316284 -3.429010922540674e-19 -0.001
  endloop
 endfacet
 facet normal 2.220445916901415e-16 -1.0 -1.3544901212565557e-16
  outer loop
   vertex 0.0012000000476837158 -5.526992154183573e-19 -0.014
   vertex 0.003200000047683716 2.6838968507052778e-20 -0.015
   vertex 0.003200000047683716 -1.0861003203807422e-19 -0.014
  endloop
 endfacet
 facet normal 3.3306690738754696e-16 -1.0 8.659561926915534e-17
  outer loop
   vertex 0.0012000000476837158 -6.392948346875126e-19 -0.015
   vertex 0.003200000047683716 2.6838968507052778e-20 -0.015
   vertex 0.0012000000476837158 -5.526992154183573e-19 -0.014
  endloop
 endfacet
 facet normal 0.0 -1.0 -1.1428137918672356e-17
  outer loop
   vertex 0.0034000000953674316 6.605688347814128e-20 -0.014
   vertex 0.005400000095367432 6.605688347814128e-20 -0.014
   vertex 0.003799999952316284 -8.250891690922486e-20 -0.001
  endloop
 endfacet
 facet normal -4.415120856382618e-16 -1.0 -6.576809156524186e-17
  outer loop
   vertex 0.003799999952316284 -8.250891690922486e-20 -0.001
   vertex 0.005400000095367432 6.605688347814128e-20 -0.014
   vertex 0.005 -6.123233998228043e-19 -0.001
  endloop
 endfacet
 facet normal 4.824368265919881e-16 -1.0 -9.19199575333938e-18
  outer loop
   vertex 0.005 -6.123233998228043e-19 -0.001
   vertex 0.005599999904632568 -2.0336541085570585e-19 -0.014
   vertex 0.006 -1.2988659970059577e-19 -0.001
  endloop
 endfacet
 facet normal -1.3471127289837667e-15 -1.0 -9.363272929027467e-17
  outer loop
   vertex 0.005400000095367432 6.605688347814128e-20 -0.014
   vertex 0.005599999904632568 -2.0336541085570585e-19 -0.014
   vertex 0.005 -6.123233998228043e-19 -0.001
  endloop
 endfacet
 facet normal 0.0 -1.0 8.659560603426554e-17
  outer loop
   vertex 0.0034000000953674316 -2.0538722556124267e-20 -0.015
   vertex 0.005400000095367432 -2.0538722556124267e-20 -0.015
   vertex 0.0034000000953674316 6.605688347814128e-20 -0.014
  endloop
 endfacet
 facet normal 0.0 -1.0 8.659560603426554e-17
  outer loop
   vertex 0.0034000000953674316 6.605688347814128e-20 -0.014
   vertex 0.005400000095367432 -2.0538722556124267e-20 -0.015
   vertex 0.005400000095367432 6.605688347814128e-20 -0.014
  endloop
 endfacet
 facet normal -9.96623730299738e-16 -1.0 4.8005787500262034e-17
  outer loop
   vertex 0.008199999809265137 4.478030919817481e-20 -0.001
   vertex 0.007599999904632568 1.8679192414964234e-20 -0.014
   vertex 0.009399999618530273 -1.151167962020719e-18 -0.001
  endloop
 endfacet
 facet normal 1.1102230246251565e-16 -1.0 2.236144646874814e-18
  outer loop
   vertex 0.005599999904632568 -2.0336541085570585e-19 -0.014
   vertex 0.007599999904632568 1.8679192414964234e-20 -0.014
   vertex 0.006 -1.2988659970059577e-19 -0.001
  endloop
 endfacet
 facet normal -6.265492652323811e-16 -1.0 -8.854189584115381e-17
  outer loop
   vertex 0.006 -1.2988659970059577e-19 -0.001
   vertex 0.007599999904632568 1.8679192414964234e-20 -0.014
   vertex 0.007199999809265137 -8.817456809217617e-19 -0.001
  endloop
 endfacet
 facet normal 9.265260364420508e-16 -1.0 -4.075495055247126e-17
  outer loop
   vertex 0.007199999809265137 -8.817456809217617e-19 -0.001
   vertex 0.007599999904632568 1.8679192414964234e-20 -0.014
   vertex 0.008199999809265137 4.478030919817481e-20 -0.001
  endloop
 endfacet
 facet normal 1.1102230246251565e-16 -1.0 8.659561926915534e-17
  outer loop
   vertex 0.005599999904632568 -2.899610301248612e-19 -0.015
   vertex 0.007599999904632568 -6.791641196494008e-20 -0.015
   vertex 0.005599999904632568 -2.0336541085570585e-19 -0.014
  endloop
 endfacet
 facet normal 1.1102230246251565e-16 -1.0 8.659560603426554e-17
  outer loop
   vertex 0.005599999904632568 -2.0336541085570585e-19 -0.014
   vertex 0.007599999904632568 -6.791641196494008e-20 -0.015
   vertex 0.007599999904632568 1.8679192414964234e-20 -0.014
  endloop
 endfacet
 facet normal 2.5973716079626385e-17 -1.0 0.0
  outer loop
   vertex 0.010399999618530274 -2.597381451411928e-21 -0.001
   vertex 0.0105 0.0 -0.014
   vertex 0.0105 0.0 -0.001
  endloop
 endfacet
 facet normal -6.441100747175879e-18 -1.0 -8.909639801913996e-17
  outer loop
   vertex 0.007599999904632568 1.8679192414964234e-20 -0.014
   vertex 0.0105 0.0 -0.014
   vertex 0.009399999618530273 -1.151167962020719e-18 -0.001
  endloop
 endfacet
 facet normal 1.1485705354879637e-15 -1.0 8.63538674633306e-18
  outer loop
   vertex 0.009399999618530273 -1.151167962020719e-18 -0.001
   vertex 0.0105 0.0 -0.014
   vertex 0.010399999618530274 -2.597381451411928e-21 -0.001
  endloop
 endfacet
 facet normal 0.0 -1.0 0.0
  outer loop
   vertex 0.0 0.0 0.005
   vertex 0.0 0.0 -0.015
   vertex 0.0005 0.0 0.0
  endloop
 endfacet
 facet normal 0.0 -1.0 -0.0
  outer loop
   vertex 0.0005 0.0 0.0
   vertex 0.0 0.0 -0.015
   vertex 0.0005 0.0 -0.001
  endloop
 endfacet
endsolid patch_3_0
